# xmcd
#
# Track frame offsets:
#	150
#	19727
#	41804
#	69326
#	86681
#	107203
#	130522
#	152452
#	175549
#	188924
#	209799
#	226265
#
# Disc length: 3304 seconds
#
# Revision: 1
# Processed by: cddbd v1.5.2PL0 Copyright (c) Steve Scherf et al.
# Submitted via: EasyCDDAExtractor 10.0.6.1
#
DISCID=980ce60c
DTITLE=Impossiblues - Smells Like Blues
DYEAR=2000
DGENRE=Blues
TTITLE0=Smack Dub
TTITLE1=Boogie
TTITLE2=She's My Baby
TTITLE3=That's Life
TTITLE4=Walk Like You
TTITLE5=Boom Boom
TTITLE6=Nobody But Me
TTITLE7=Kansas City
TTITLE8=Where Were You
TTITLE9=Digging My Potatoes
TTITLE10=Right Train, Wrong Track
TTITLE11=Blue Valentine
EXTD=
EXTT0=
EXTT1=
EXTT2=
EXTT3=
EXTT4=
EXTT5=
EXTT6=
EXTT7=
EXTT8=
EXTT9=
EXTT10=
EXTT11=
PLAYORDER=
